# xmcd
#
# Track frame offsets: 
#        150
#        10852
#        21382
#        33528
#        43883
#        61403
#
# Disc length: 977 seconds
#
# Revision: 0
# Processed by: cddbd v1.5.2PL0 Copyright (c) Steve Scherf et al.
# Submitted via: ExactAudioCopy v0.95b4
#
DISCID=4c03cf06
DTITLE=Rövarna - möter Bronco Kid
DYEAR=2009
DGENRE=Porn Groove
TTITLE0=Smala lår
TTITLE1=Hopplöst fall
TTITLE2=Så skulle man ha det (när man hade det som sämst)
TTITLE3=Balladhatarmannen och hans dotter
TTITLE4=Ludde
TTITLE5=Tändsticksfan
EXTD=
EXTT0=
EXTT1=
EXTT2=
EXTT3=
EXTT4=
EXTT5=
PLAYORDER=
